<mxfile host="app.diagrams.net" modified="2023-11-22T09:30:18.165Z" agent="Mozilla/5.0 (Windows NT 10.0; Win64; x64) AppleWebKit/537.36 (KHTML, like Gecko) Chrome/119.0.0.0 Safari/537.36" etag="i4B4PruNyDKOH8kzTHk9" version="22.1.3" type="github">
  <diagram id="C5RBs43oDa-KdzZeNtuy" name="Page-1">
    <mxGraphModel dx="1195" dy="658" grid="1" gridSize="10" guides="1" tooltips="1" connect="1" arrows="1" fold="1" page="1" pageScale="1" pageWidth="827" pageHeight="1169" math="0" shadow="0">
      <root>
        <mxCell id="WIyWlLk6GJQsqaUBKTNV-0" />
        <mxCell id="WIyWlLk6GJQsqaUBKTNV-1" parent="WIyWlLk6GJQsqaUBKTNV-0" />
        <mxCell id="Y6icNcoJSX6k4FpKZQI2-22" style="edgeStyle=orthogonalEdgeStyle;rounded=0;orthogonalLoop=1;jettySize=auto;html=1;" edge="1" parent="WIyWlLk6GJQsqaUBKTNV-1" source="WIyWlLk6GJQsqaUBKTNV-3" target="Y6icNcoJSX6k4FpKZQI2-3">
          <mxGeometry relative="1" as="geometry" />
        </mxCell>
        <mxCell id="Y6icNcoJSX6k4FpKZQI2-23" value="add node" style="edgeLabel;html=1;align=center;verticalAlign=middle;resizable=0;points=[];" vertex="1" connectable="0" parent="Y6icNcoJSX6k4FpKZQI2-22">
          <mxGeometry x="-0.2212" y="-1" relative="1" as="geometry">
            <mxPoint as="offset" />
          </mxGeometry>
        </mxCell>
        <mxCell id="WIyWlLk6GJQsqaUBKTNV-3" value="Create Node1" style="rounded=0;whiteSpace=wrap;html=1;fontSize=12;glass=0;strokeWidth=1;shadow=0;" parent="WIyWlLk6GJQsqaUBKTNV-1" vertex="1">
          <mxGeometry x="294" y="150" width="120" height="40" as="geometry" />
        </mxCell>
        <mxCell id="Y6icNcoJSX6k4FpKZQI2-15" style="edgeStyle=orthogonalEdgeStyle;rounded=0;orthogonalLoop=1;jettySize=auto;html=1;entryX=0;entryY=0.75;entryDx=0;entryDy=0;" edge="1" parent="WIyWlLk6GJQsqaUBKTNV-1" source="Y6icNcoJSX6k4FpKZQI2-1" target="WIyWlLk6GJQsqaUBKTNV-3">
          <mxGeometry relative="1" as="geometry" />
        </mxCell>
        <mxCell id="Y6icNcoJSX6k4FpKZQI2-16" value="add pub" style="edgeLabel;html=1;align=center;verticalAlign=middle;resizable=0;points=[];" vertex="1" connectable="0" parent="Y6icNcoJSX6k4FpKZQI2-15">
          <mxGeometry x="-0.0854" y="2" relative="1" as="geometry">
            <mxPoint as="offset" />
          </mxGeometry>
        </mxCell>
        <mxCell id="Y6icNcoJSX6k4FpKZQI2-1" value="Create Publisher" style="rounded=0;whiteSpace=wrap;html=1;fontSize=12;glass=0;strokeWidth=1;shadow=0;" vertex="1" parent="WIyWlLk6GJQsqaUBKTNV-1">
          <mxGeometry x="190" y="20" width="120" height="40" as="geometry" />
        </mxCell>
        <mxCell id="Y6icNcoJSX6k4FpKZQI2-3" value="Node(ptr) Map" style="rounded=0;whiteSpace=wrap;html=1;fontSize=12;glass=0;strokeWidth=1;shadow=0;" vertex="1" parent="WIyWlLk6GJQsqaUBKTNV-1">
          <mxGeometry x="294" y="300" width="120" height="40" as="geometry" />
        </mxCell>
        <mxCell id="Y6icNcoJSX6k4FpKZQI2-6" value="" style="curved=1;endArrow=classic;html=1;rounded=0;exitX=0.5;exitY=0;exitDx=0;exitDy=0;entryX=0.5;entryY=1;entryDx=0;entryDy=0;" edge="1" parent="WIyWlLk6GJQsqaUBKTNV-1" source="WIyWlLk6GJQsqaUBKTNV-3" target="Y6icNcoJSX6k4FpKZQI2-1">
          <mxGeometry width="50" height="50" relative="1" as="geometry">
            <mxPoint x="310" y="140" as="sourcePoint" />
            <mxPoint x="360" y="90" as="targetPoint" />
            <Array as="points" />
          </mxGeometry>
        </mxCell>
        <mxCell id="Y6icNcoJSX6k4FpKZQI2-10" value="" style="curved=1;endArrow=classic;html=1;rounded=0;exitX=0.5;exitY=0;exitDx=0;exitDy=0;" edge="1" parent="WIyWlLk6GJQsqaUBKTNV-1" source="Y6icNcoJSX6k4FpKZQI2-11">
          <mxGeometry width="50" height="50" relative="1" as="geometry">
            <mxPoint x="360" y="150" as="sourcePoint" />
            <mxPoint x="436" y="50" as="targetPoint" />
            <Array as="points" />
          </mxGeometry>
        </mxCell>
        <mxCell id="Y6icNcoJSX6k4FpKZQI2-12" value="" style="curved=1;endArrow=classic;html=1;rounded=0;" edge="1" parent="WIyWlLk6GJQsqaUBKTNV-1" target="Y6icNcoJSX6k4FpKZQI2-11">
          <mxGeometry width="50" height="50" relative="1" as="geometry">
            <mxPoint x="350" y="150" as="sourcePoint" />
            <mxPoint x="436" y="50" as="targetPoint" />
            <Array as="points" />
          </mxGeometry>
        </mxCell>
        <mxCell id="Y6icNcoJSX6k4FpKZQI2-19" style="edgeStyle=orthogonalEdgeStyle;rounded=0;orthogonalLoop=1;jettySize=auto;html=1;entryX=1;entryY=0.75;entryDx=0;entryDy=0;" edge="1" parent="WIyWlLk6GJQsqaUBKTNV-1" source="Y6icNcoJSX6k4FpKZQI2-11" target="WIyWlLk6GJQsqaUBKTNV-3">
          <mxGeometry relative="1" as="geometry" />
        </mxCell>
        <mxCell id="Y6icNcoJSX6k4FpKZQI2-21" value="add sub" style="edgeLabel;html=1;align=center;verticalAlign=middle;resizable=0;points=[];" vertex="1" connectable="0" parent="Y6icNcoJSX6k4FpKZQI2-19">
          <mxGeometry x="0.0822" y="1" relative="1" as="geometry">
            <mxPoint as="offset" />
          </mxGeometry>
        </mxCell>
        <mxCell id="Y6icNcoJSX6k4FpKZQI2-11" value="Create Subscriber" style="rounded=0;whiteSpace=wrap;html=1;fontSize=12;glass=0;strokeWidth=1;shadow=0;" vertex="1" parent="WIyWlLk6GJQsqaUBKTNV-1">
          <mxGeometry x="380" y="20" width="120" height="40" as="geometry" />
        </mxCell>
        <mxCell id="Y6icNcoJSX6k4FpKZQI2-17" value="Create" style="text;html=1;align=center;verticalAlign=middle;resizable=0;points=[];autosize=1;strokeColor=none;fillColor=none;" vertex="1" parent="WIyWlLk6GJQsqaUBKTNV-1">
          <mxGeometry x="320" y="100" width="60" height="30" as="geometry" />
        </mxCell>
        <mxCell id="Y6icNcoJSX6k4FpKZQI2-25" style="edgeStyle=orthogonalEdgeStyle;rounded=0;orthogonalLoop=1;jettySize=auto;html=1;entryX=1;entryY=0.5;entryDx=0;entryDy=0;" edge="1" parent="WIyWlLk6GJQsqaUBKTNV-1" source="Y6icNcoJSX6k4FpKZQI2-24" target="Y6icNcoJSX6k4FpKZQI2-3">
          <mxGeometry relative="1" as="geometry" />
        </mxCell>
        <mxCell id="Y6icNcoJSX6k4FpKZQI2-26" value="add node" style="edgeLabel;html=1;align=center;verticalAlign=middle;resizable=0;points=[];" vertex="1" connectable="0" parent="Y6icNcoJSX6k4FpKZQI2-25">
          <mxGeometry x="0.0914" y="-2" relative="1" as="geometry">
            <mxPoint as="offset" />
          </mxGeometry>
        </mxCell>
        <mxCell id="Y6icNcoJSX6k4FpKZQI2-24" value="Create Node2" style="rounded=0;whiteSpace=wrap;html=1;fontSize=12;glass=0;strokeWidth=1;shadow=0;" vertex="1" parent="WIyWlLk6GJQsqaUBKTNV-1">
          <mxGeometry x="490" y="150" width="120" height="40" as="geometry" />
        </mxCell>
        <mxCell id="Y6icNcoJSX6k4FpKZQI2-31" value="" style="edgeStyle=orthogonalEdgeStyle;rounded=0;orthogonalLoop=1;jettySize=auto;html=1;" edge="1" parent="WIyWlLk6GJQsqaUBKTNV-1" source="Y6icNcoJSX6k4FpKZQI2-27" target="Y6icNcoJSX6k4FpKZQI2-30">
          <mxGeometry relative="1" as="geometry" />
        </mxCell>
        <mxCell id="Y6icNcoJSX6k4FpKZQI2-27" value="rscl::Shutdown" style="whiteSpace=wrap;html=1;" vertex="1" parent="WIyWlLk6GJQsqaUBKTNV-1">
          <mxGeometry x="30" y="469.5" width="100" height="30" as="geometry" />
        </mxCell>
        <mxCell id="Y6icNcoJSX6k4FpKZQI2-37" value="" style="edgeStyle=orthogonalEdgeStyle;rounded=0;orthogonalLoop=1;jettySize=auto;html=1;" edge="1" parent="WIyWlLk6GJQsqaUBKTNV-1" source="Y6icNcoJSX6k4FpKZQI2-28" target="Y6icNcoJSX6k4FpKZQI2-36">
          <mxGeometry relative="1" as="geometry" />
        </mxCell>
        <mxCell id="Y6icNcoJSX6k4FpKZQI2-28" value="mw::Shutdown" style="whiteSpace=wrap;html=1;" vertex="1" parent="WIyWlLk6GJQsqaUBKTNV-1">
          <mxGeometry x="380" y="470" width="100" height="30" as="geometry" />
        </mxCell>
        <mxCell id="Y6icNcoJSX6k4FpKZQI2-33" style="edgeStyle=orthogonalEdgeStyle;rounded=0;orthogonalLoop=1;jettySize=auto;html=1;exitX=0.5;exitY=0;exitDx=0;exitDy=0;entryX=0.5;entryY=1;entryDx=0;entryDy=0;" edge="1" parent="WIyWlLk6GJQsqaUBKTNV-1" source="Y6icNcoJSX6k4FpKZQI2-30" target="Y6icNcoJSX6k4FpKZQI2-3">
          <mxGeometry relative="1" as="geometry" />
        </mxCell>
        <mxCell id="Y6icNcoJSX6k4FpKZQI2-34" value="iter Call Shutdown" style="edgeLabel;html=1;align=center;verticalAlign=middle;resizable=0;points=[];" vertex="1" connectable="0" parent="Y6icNcoJSX6k4FpKZQI2-33">
          <mxGeometry x="-0.1298" y="-3" relative="1" as="geometry">
            <mxPoint x="13" y="-15" as="offset" />
          </mxGeometry>
        </mxCell>
        <mxCell id="Y6icNcoJSX6k4FpKZQI2-35" style="edgeStyle=orthogonalEdgeStyle;rounded=0;orthogonalLoop=1;jettySize=auto;html=1;entryX=0;entryY=0.5;entryDx=0;entryDy=0;" edge="1" parent="WIyWlLk6GJQsqaUBKTNV-1" source="Y6icNcoJSX6k4FpKZQI2-30" target="Y6icNcoJSX6k4FpKZQI2-28">
          <mxGeometry relative="1" as="geometry" />
        </mxCell>
        <mxCell id="Y6icNcoJSX6k4FpKZQI2-30" value="Get Nodes &amp;amp;&lt;br&gt;&amp;nbsp;Call Shutdown" style="whiteSpace=wrap;html=1;" vertex="1" parent="WIyWlLk6GJQsqaUBKTNV-1">
          <mxGeometry x="200" y="469.5" width="100" height="30.5" as="geometry" />
        </mxCell>
        <mxCell id="Y6icNcoJSX6k4FpKZQI2-36" value="faw::Deinit" style="whiteSpace=wrap;html=1;" vertex="1" parent="WIyWlLk6GJQsqaUBKTNV-1">
          <mxGeometry x="550" y="469.5" width="100" height="30" as="geometry" />
        </mxCell>
      </root>
    </mxGraphModel>
  </diagram>
</mxfile>
